<svg width="51" height="51" viewBox="0 0 51 51" fill="none" xmlns="http://www.w3.org/2000/svg">
<g id="ballot-check 1" opacity="0.2" clip-path="url(#clip0_2_261)">
<path id="Vector" d="M24.4477 24.6847L20.5685 28.4451C19.906 29.1076 19.0268 29.441 18.1456 29.441C17.256 29.441 16.3623 29.1014 15.681 28.4222L14.2623 27.0597C13.4331 26.2618 13.406 24.9431 14.2039 24.1139C15.0018 23.2847 16.3227 23.2597 17.1498 24.0555L18.1352 25.0035L21.5477 21.6951C22.3727 20.8972 23.6914 20.9139 24.4935 21.741C25.2935 22.566 25.2748 23.8826 24.4477 24.6847ZM33.4143 35.6889H27.1643C26.0143 35.6889 25.081 36.6222 25.081 37.7722C25.081 38.9222 26.0143 39.8555 27.1643 39.8555H33.4143C34.5644 39.8555 35.4977 38.9222 35.4977 37.7722C35.4977 36.6222 34.5644 35.6889 33.4143 35.6889ZM33.4143 10.6889H27.1643C26.0143 10.6889 25.081 11.6222 25.081 12.7722C25.081 13.9222 26.0143 14.8555 27.1643 14.8555H33.4143C34.5644 14.8555 35.4977 13.9222 35.4977 12.7722C35.4977 11.6222 34.5644 10.6889 33.4143 10.6889ZM33.4143 23.1889H29.2477C28.0977 23.1889 27.1643 24.1222 27.1643 25.2722C27.1643 26.4222 28.0977 27.3555 29.2477 27.3555H33.4143C34.5644 27.3555 35.4977 26.4222 35.4977 25.2722C35.4977 24.1222 34.5644 23.1889 33.4143 23.1889ZM17.7893 34.6472C16.0643 34.6472 14.6643 36.0472 14.6643 37.7722C14.6643 39.4972 16.0643 40.8972 17.7893 40.8972C19.5143 40.8972 20.9143 39.4972 20.9143 37.7722C20.9143 36.0472 19.5143 34.6472 17.7893 34.6472ZM17.7893 15.8972C19.5143 15.8972 20.9143 14.4972 20.9143 12.7722C20.9143 11.0472 19.5143 9.64722 17.7893 9.64722C16.0643 9.64722 14.6643 11.0472 14.6643 12.7722C14.6643 14.4972 16.0643 15.8972 17.7893 15.8972ZM45.9144 10.6889V39.8555C45.9144 45.5993 41.2414 50.2722 35.4977 50.2722H14.6643C8.9206 50.2722 4.24768 45.5993 4.24768 39.8555V10.6889C4.24768 4.94513 8.9206 0.272217 14.6643 0.272217H35.4977C41.2414 0.272217 45.9144 4.94513 45.9144 10.6889ZM41.7477 10.6889C41.7477 7.24305 38.9435 4.43888 35.4977 4.43888H14.6643C11.2185 4.43888 8.41435 7.24305 8.41435 10.6889V39.8555C8.41435 43.3014 11.2185 46.1055 14.6643 46.1055H35.4977C38.9435 46.1055 41.7477 43.3014 41.7477 39.8555V10.6889Z" fill="white"/>
</g>
<defs>
<clipPath id="clip0_2_261">
<rect width="50" height="50" fill="white" transform="translate(0.0810547 0.272217)"/>
</clipPath>
</defs>
</svg>
