<svg width="54" height="54" viewBox="0 0 54 54" fill="none" xmlns="http://www.w3.org/2000/svg">
<g id="bell 1" clip-path="url(#clip0_2_250)">
<path id="Vector" d="M9.47301 40.1221H44.1132C45.1793 40.1221 46.2297 39.8653 47.1756 39.3735C48.1215 38.8817 48.9349 38.1693 49.5472 37.2965C50.1595 36.4238 50.5526 35.4164 50.6932 34.3596C50.8337 33.3028 50.7177 32.2277 50.3549 31.2253L44.0446 13.7791C42.9669 9.90197 40.6489 6.4846 37.4451 4.04961C34.2414 1.61462 30.3282 0.296063 26.3041 0.295593C22.1151 0.295528 18.0513 1.72401 14.7837 4.34519C11.5161 6.96636 9.24001 10.6235 8.33132 14.7128L3.13175 31.5284C2.82562 32.5212 2.7568 33.572 2.93082 34.5962C3.10485 35.6204 3.51687 36.5895 4.13372 37.4255C4.75058 38.2614 5.55505 38.9409 6.4824 39.4093C7.40975 39.8777 8.4341 40.1218 9.47301 40.1221Z" fill="#FFBD1A"/>
<path id="Vector_2" d="M16.1816 44.5472C16.6895 47.0481 18.0462 49.2965 20.0221 50.9115C21.998 52.5264 24.4714 53.4087 27.0233 53.4087C29.5752 53.4087 32.0486 52.5264 34.0245 50.9115C36.0003 49.2965 37.3571 47.0481 37.8649 44.5472H16.1816Z" fill="#FFBD1A"/>
</g>
<defs>
<clipPath id="clip0_2_250">
<rect width="53.102" height="53.102" fill="white" transform="translate(0.47229 0.295593)"/>
</clipPath>
</defs>
</svg>
