<svg width="51" height="51" viewBox="0 0 51 51" fill="none" xmlns="http://www.w3.org/2000/svg">
<g id="calendar-lines 1" opacity="0.2" clip-path="url(#clip0_2_277)">
<path id="Vector" d="M37.5811 26.6177C37.5811 28.3447 36.1811 29.7427 34.4561 29.7427H15.7061C13.9811 29.7427 12.5811 28.3447 12.5811 26.6177C12.5811 24.8906 13.9811 23.4927 15.7061 23.4927H34.4561C36.1811 23.4927 37.5811 24.8906 37.5811 26.6177ZM24.0394 33.9093H15.7061C13.9811 33.9093 12.5811 35.3072 12.5811 37.0343C12.5811 38.7614 13.9811 40.1593 15.7061 40.1593H24.0394C25.7644 40.1593 27.1644 38.7614 27.1644 37.0343C27.1644 35.3072 25.7644 33.9093 24.0394 33.9093ZM50.0811 16.201V39.1177C50.0811 45.4364 44.9394 50.576 38.6227 50.576H11.5394C5.22272 50.576 0.0810547 45.4364 0.0810547 39.1177V16.201C0.0810547 9.88224 5.22272 4.74266 11.5394 4.74266H12.5811V3.70099C12.5811 1.97391 13.9811 0.575989 15.7061 0.575989C17.4311 0.575989 18.8311 1.97391 18.8311 3.70099V4.74266H31.3311V3.70099C31.3311 1.97391 32.7311 0.575989 34.4561 0.575989C36.1811 0.575989 37.5811 1.97391 37.5811 3.70099V4.74266H38.6227C44.9394 4.74266 50.0811 9.88224 50.0811 16.201ZM43.8311 39.1177V19.326H6.33105V39.1177C6.33105 41.9885 8.66647 44.326 11.5394 44.326H38.6227C41.4956 44.326 43.8311 41.9885 43.8311 39.1177Z" fill="white"/>
</g>
<defs>
<clipPath id="clip0_2_277">
<rect width="50" height="50" fill="white" transform="translate(0.0810547 0.575989)"/>
</clipPath>
</defs>
</svg>
