<svg width="36" height="39" viewBox="0 0 36 39" fill="none" xmlns="http://www.w3.org/2000/svg">
<g id="Group 16">
<path id="Rectangle 9" d="M21.2458 1.63971H9.09029C6.32887 1.63971 4.09029 3.87829 4.09029 6.63971V29.3672C4.09029 32.1287 6.32887 34.3672 9.09029 34.3672H21.2458V1.63971Z" fill="url(#paint0_linear_2_132)"/>
<g id="Group 15">
<g id="Group">
<path id="Vector" d="M19.0252 22.7282C19.1245 23.0039 19.2018 23.2872 19.2566 23.5753C19.0488 23.6103 18.8357 23.5973 18.6328 23.5374C18.4329 23.5105 18.2414 23.4372 18.0728 23.3232C18.2201 23.0688 18.3963 22.8333 18.5978 22.6214C17.0654 21.9083 11.8954 16.6297 13.2449 9.40311C14.1836 4.37556 18.4143 1.00316 22.6941 1.86761C26.9739 2.73206 29.6791 7.50854 28.7404 12.5361C27.3555 19.9378 20.6887 22.6866 19.0252 22.7282Z" fill="#953DE3"/>
</g>
<g id="Group_2">
<path id="Vector_2" d="M18.6097 33.0768C18.8624 33.2424 19.1018 33.4279 19.3256 33.6314C19.176 33.789 18.9924 33.9105 18.788 33.9869C18.6066 34.0887 18.4034 34.1471 18.1938 34.1576C18.1574 33.8566 18.1566 33.5533 18.1913 33.2538C16.4863 33.6162 8.95313 32.4715 5.58486 25.6795C3.24144 20.9544 4.63707 15.5522 8.69993 13.6112C12.7628 11.6702 17.9535 13.9292 20.2969 18.6543C23.7446 25.6126 19.9548 32.0112 18.6097 33.0768Z" fill="#FF5622" fill-opacity="0.8"/>
</g>
<g id="Group_3">
<path id="Vector_3" d="M18.9413 34.2351C18.9058 34.5098 18.8486 34.7814 18.7703 35.0473C18.5805 34.987 18.4069 34.8842 18.2621 34.7462C18.1056 34.6373 17.9761 34.4931 17.8836 34.3245C18.1172 34.1741 18.3671 34.052 18.628 33.9608C17.647 32.6998 15.5773 26.0295 19.8309 20.5346C22.79 16.7118 27.8033 15.7015 31.0293 18.2755C34.2554 20.8495 34.469 26.0338 31.5099 29.8566C27.151 35.4835 20.3582 34.918 18.9413 34.2351Z" fill="#00A67B" fill-opacity="0.9"/>
</g>
</g>
</g>
<defs>
<linearGradient id="paint0_linear_2_132" x1="4.09029" y1="16.7149" x2="37.1184" y2="16.7149" gradientUnits="userSpaceOnUse">
<stop stop-color="#FEC768"/>
<stop offset="1" stop-color="#FEC768" stop-opacity="0"/>
</linearGradient>
</defs>
</svg>
