<svg width="51" height="51" viewBox="0 0 51 51" fill="none" xmlns="http://www.w3.org/2000/svg">
<g id="whatsapp 1" opacity="0.2" clip-path="url(#clip0_2_268)">
<g id="WA_Logo">
<g id="Group">
<path id="Vector" fill-rule="evenodd" clip-rule="evenodd" d="M43.4084 7.53888C38.7292 2.85555 32.5084 0.2743 25.8813 0.272217C12.225 0.272217 1.11046 11.3847 1.10421 25.0472C1.10212 29.4139 2.24379 33.6764 4.41254 37.4347L0.895874 50.2722L14.0292 46.8264C17.648 48.8014 21.723 49.841 25.8688 49.843H25.8792C39.5334 49.843 50.65 38.7285 50.6563 25.066C50.6605 18.4472 48.0855 12.2201 43.4084 7.53888ZM25.8813 45.6576H25.873C22.1771 45.6576 18.5542 44.6639 15.3917 42.7868L14.6396 42.341L6.84587 44.3847L8.92712 36.7847L8.43754 36.0056C6.37504 32.7264 5.28754 28.9368 5.28962 25.0472C5.29379 13.6931 14.5334 4.45555 25.8917 4.45555C31.3917 4.45555 36.5625 6.60138 40.45 10.493C44.3375 14.3868 46.4771 19.5597 46.475 25.0618C46.4688 36.4201 37.2313 45.6576 25.8813 45.6576ZM37.1771 30.2347C36.5584 29.9243 33.5146 28.4264 32.9459 28.2201C32.3792 28.0139 31.9667 27.9097 31.5521 28.5285C31.1375 29.1472 29.9542 30.543 29.5917 30.9576C29.2313 31.3701 28.8688 31.4222 28.25 31.1118C27.6313 30.8014 25.6355 30.1493 23.2709 28.0389C21.4313 26.3972 20.1875 24.3701 19.8271 23.7493C19.4667 23.1285 19.7896 22.7951 20.098 22.4868C20.3771 22.2097 20.7167 21.7639 21.0271 21.4014C21.3396 21.043 21.4417 20.7847 21.65 20.3701C21.8563 19.9576 21.7542 19.5951 21.598 19.2847C21.4417 18.9764 20.2042 15.9285 19.6896 14.6889C19.1875 13.4805 18.6771 13.6451 18.2959 13.6264C17.9355 13.6076 17.523 13.6055 17.1084 13.6055C16.6959 13.6055 16.025 13.7597 15.4584 14.3805C14.8917 15.0014 13.2917 16.4993 13.2917 19.5451C13.2917 22.5931 15.5105 25.5368 15.8188 25.9493C16.1271 26.3618 20.1834 32.616 26.3938 35.2972C27.8709 35.9347 29.025 36.316 29.923 36.6014C31.4063 37.0722 32.7563 37.0055 33.823 36.8472C35.0125 36.6701 37.4855 35.3493 38.0021 33.9035C38.5188 32.4576 38.5188 31.216 38.3625 30.9597C38.2084 30.6993 37.7959 30.5451 37.1771 30.2347Z" fill="white"/>
</g>
</g>
</g>
<defs>
<clipPath id="clip0_2_268">
<rect width="50" height="50" fill="white" transform="translate(0.7771 0.272217)"/>
</clipPath>
</defs>
</svg>
